<svg xmlns="http://www.w3.org/2000/svg" xmlns:xlink="http://www.w3.org/1999/xlink" version="1.1" id="Layer_1" x="0px" y="0px" width="360px" height="65.496px" viewBox="0 0 360 65.496" enable-background="new 0 0 360 65.496" xml:space="preserve">
  <g>
    <g>
      <g>
        <path fill="#333333" d="M87.037 9.12H71.404v41.616H60.905V9.12H45.196V0.336h41.841V9.12z"/>
        <path fill="#333333" d="M96.386 34.968l1.379 5.616h0.46l0.996-5.688 5.824-20.16h10.269l-11.648 32.472c-0.971 2.688-1.904 5.148-2.797 7.38 -0.894 2.232-1.878 4.164-2.95 5.796 -1.073 1.631-2.261 2.891-3.564 3.779 -1.302 0.888-2.848 1.332-4.636 1.332 -2.657 0-4.778-0.408-6.361-1.224l1.839-7.488c0.767 0.288 1.533 0.433 2.299 0.433 1.175 0 2.311-0.469 3.41-1.404 1.098-0.936 1.928-2.628 2.49-5.076l-16.016-36h11.955L96.386 34.968z"/>
        <path fill="#333333" d="M119.069 14.736h7.28l1.15 4.32h0.307c1.328-1.823 2.899-3.168 4.713-4.032 1.813-0.864 4.023-1.296 6.628-1.296 4.802 0 8.403 1.429 10.805 4.284 2.4 2.856 3.601 7.452 3.601 13.788 0 3.072-0.383 5.844-1.15 8.316 -0.766 2.473-1.904 4.572-3.41 6.3 -1.508 1.728-3.347 3.048-5.518 3.96 -2.172 0.911-4.663 1.368-7.472 1.368 -1.584 0-2.887-0.108-3.908-0.324 -1.023-0.216-2.044-0.565-3.066-1.044v14.76h-9.962V14.736zM136.158 21.648c-1.942 0-3.462 0.457-4.56 1.368 -1.099 0.913-1.954 2.281-2.567 4.104v14.976c0.715 0.529 1.495 0.949 2.338 1.26 0.843 0.312 1.954 0.468 3.333 0.468 2.86 0 5.006-0.947 6.437-2.844 1.43-1.896 2.146-5.028 2.146-9.396 0-3.168-0.563-5.616-1.686-7.344C140.475 22.512 138.66 21.648 136.158 21.648z"/>
        <path fill="#333333" d="M191.103 47.64c-1.532 1.152-3.614 2.124-6.245 2.916 -2.632 0.792-5.43 1.188-8.392 1.188 -6.182 0-10.703-1.692-13.563-5.076 -2.862-3.384-4.292-8.028-4.292-13.932 0-6.336 1.609-11.088 4.828-14.256 3.218-3.168 7.74-4.752 13.563-4.752 1.941 0 3.832 0.241 5.671 0.72 1.84 0.48 3.474 1.272 4.905 2.376 1.429 1.105 2.579 2.592 3.449 4.464 0.868 1.872 1.302 4.201 1.302 6.984 0 1.008-0.064 2.088-0.191 3.24 -0.128 1.152-0.32 2.353-0.575 3.6h-22.99c0.153 3.024 0.983 5.304 2.491 6.84 1.506 1.537 3.947 2.304 7.318 2.304 2.094 0 3.972-0.299 5.633-0.9 1.659-0.6 2.924-1.212 3.793-1.836L191.103 47.64zM176.849 21.216c-2.606 0-4.535 0.732-5.786 2.196 -1.252 1.465-2.006 3.42-2.261 5.868h14.254c0.204-2.592-0.218-4.583-1.265-5.976C180.744 21.913 179.097 21.216 176.849 21.216z"/>
      </g>
      <path fill="#333333" d="M226.737 14.736l6.974 18.432 1.379 5.976h0.307l1.073-6.048 4.904-18.36h9.12l-11.801 36.36h-7.357l-7.74-20.16 -0.996-4.536h-0.384l-0.919 4.608 -7.357 20.088h-7.586l-12.339-36.36h10.805l5.594 18.072 0.92 6.408h0.384l1.302-6.48 6.36-18H226.737z"/>
      <path fill="#333333" d="M275.398 23.52c-1.584-0.528-3.014-0.792-4.291-0.792 -1.789 0-3.283 0.444-4.483 1.332 -1.202 0.889-2.006 2.028-2.414 3.42v23.256h-9.963v-36h7.74l1.15 4.752h0.307c0.868-1.775 2.042-3.143 3.525-4.104 1.481-0.959 3.219-1.44 5.212-1.44 1.327 0 2.835 0.264 4.521 0.792L275.398 23.52z"/>
      <path fill="#333333" d="M282.065 14.736h9.963v36h-9.963V14.736z"/>
      <path fill="#333333" d="M297.775 14.736h5.287V7.968l9.963-2.664v9.432h9.348v7.92h-9.348V36.48c0 2.496 0.268 4.284 0.804 5.364s1.545 1.62 3.027 1.62c1.022 0 1.902-0.096 2.644-0.288 0.739-0.191 1.571-0.479 2.49-0.864l1.762 7.2c-1.379 0.625-2.988 1.152-4.827 1.584 -1.84 0.432-3.705 0.648-5.595 0.648 -3.525 0-6.118-0.853-7.778-2.556 -1.661-1.704-2.49-4.5-2.49-8.388V22.656h-5.287V14.736z"/>
      <path fill="#333333" d="M358.775 47.64c-1.533 1.152-3.615 2.124-6.246 2.916 -2.632 0.792-5.429 1.188-8.391 1.188 -6.182 0-10.704-1.692-13.564-5.076 -2.861-3.384-4.292-8.028-4.292-13.932 0-6.336 1.609-11.088 4.828-14.256 3.218-3.168 7.739-4.752 13.564-4.752 1.941 0 3.831 0.241 5.671 0.72 1.839 0.48 3.474 1.272 4.904 2.376 1.43 1.105 2.58 2.592 3.449 4.464 0.868 1.872 1.302 4.201 1.302 6.984 0 1.008-0.064 2.088-0.191 3.24 -0.128 1.152-0.32 2.353-0.575 3.6h-22.989c0.153 3.024 0.982 5.304 2.49 6.84 1.506 1.537 3.947 2.304 7.318 2.304 2.094 0 3.971-0.299 5.632-0.9 1.66-0.6 2.924-1.212 3.793-1.836L358.775 47.64zM344.52 21.216c-2.605 0-4.534 0.732-5.785 2.196 -1.252 1.465-2.006 3.42-2.261 5.868h14.253c0.204-2.592-0.217-4.583-1.264-5.976C348.416 21.913 346.769 21.216 344.52 21.216z"/>
      <ellipse fill="#333333" cx="287.497" cy="5.141" rx="4.981" ry="4.68"/>
    </g>
    <ellipse fill="#E8C018" cx="6.988" cy="58.467" rx="6.988" ry="6.565"/>
    <ellipse fill="#E8C018" cx="6.988" cy="6.565" rx="6.988" ry="6.565"/>
    <ellipse fill="#E8C018" cx="29.383" cy="19.19" rx="6.988" ry="6.565"/>
    <ellipse fill="#E8C018" cx="29.383" cy="45.843" rx="6.988" ry="6.565"/>
    <ellipse fill="#E8C018" cx="6.988" cy="32.516" rx="6.988" ry="6.565"/>
  </g>
</svg>
